<svg width="92" height="16" viewBox="0 0 92 16" fill="none" xmlns="http://www.w3.org/2000/svg">
<path d="M0.00800781 5.92393C0.00800781 1.85193 2.29604 0.891998 6.13604 0.891998H11.144C17.208 0.891998 18 2.19594 17.96 6.13194H13.696V5.74796C13.696 4.74796 12.968 4.45997 11.696 4.45997H7.04805C4.80005 4.45997 4.37598 5.51595 4.37598 7.24395V8.73995C4.37598 10.7559 4.80002 11.5239 6.81602 11.5239H11.368C13.288 11.5239 13.864 11.332 13.864 9.60401H18.128V10.908C18.128 13.252 17.28 15.092 13 15.092H6.12803C2.28803 15.092 0 14.132 0 10.06V5.91602L0.00800781 5.92393Z" fill="#191978"/>
<path d="M20.744 1.05196H24.432V14.956H20.744V1.05196Z" fill="#191978"/>
<path d="M26.56 11.516C26.56 8.84401 28.4 8.69199 31.976 8.69199C33.992 8.69199 35.104 8.74797 35.816 9.47597V8.61201C35.816 7.65201 35.528 7.308 34.088 7.308H31.92C30.848 7.308 30.536 7.40399 30.496 8.09199H26.928C26.928 5.44399 28.232 5.004 31.344 5.004H35.624C38.16 5.004 39.504 6.21201 39.504 8.51601V14.9479H36.008V13.8359C34.992 14.8919 34.608 15.1 32.76 15.1H30.248C28 15.116 26.56 14.62 26.56 12.316V11.508V11.516ZM33.128 12.804C35.664 12.804 35.896 12.42 35.896 11.764C35.896 11.036 35.688 10.764 33.648 10.764H32.016C30.464 10.764 30.136 11.108 30.136 11.916C30.136 12.548 30.632 12.796 32.072 12.796H33.128V12.804Z" fill="#191978"/>
<path d="M45.296 11.9C45.296 12.436 45.488 12.804 47.584 12.804H48.888C50.632 12.804 51.08 12.668 51.08 12.076C51.08 11.484 50.792 11.268 49.488 11.268H46.032C42.592 11.252 41.576 10.5 41.576 7.81201C41.576 5.37201 43.536 5.01201 46.072 5.01201H48.648C53.472 5.01201 54.3121 5.68399 54.3521 7.98799H50.664C50.472 7.41199 50.128 7.31601 47.92 7.31601C45.712 7.31601 45.384 7.37194 45.384 8.04394C45.384 8.46794 45.672 8.62002 47.592 8.62002H50.144C54.56 8.62002 54.888 10.0999 54.888 11.8439C54.888 14.4359 53.848 15.108 49.648 15.108H46.1521C42.7521 15.108 41.504 14.324 41.504 11.9H45.304H45.296Z" fill="#191978"/>
<path d="M60.488 11.9C60.488 12.436 60.68 12.804 62.776 12.804H64.08C65.824 12.804 66.272 12.668 66.272 12.076C66.272 11.484 65.984 11.268 64.68 11.268H61.224C57.784 11.252 56.768 10.5 56.768 7.81201C56.768 5.37201 58.728 5.01201 61.264 5.01201H63.84C68.664 5.01201 69.504 5.68399 69.544 7.98799H65.856C65.664 7.41199 65.32 7.31601 63.112 7.31601C60.904 7.31601 60.576 7.37194 60.576 8.04394C60.576 8.46794 60.864 8.62002 62.784 8.62002H65.336C69.752 8.62002 70.08 10.0999 70.08 11.8439C70.08 14.4359 69.04 15.108 64.84 15.108H61.344C57.944 15.108 56.696 14.324 56.696 11.9H60.496H60.488Z" fill="#191978"/>
<path d="M76.136 3.93194H72.4481V1.05196H76.136V3.93194ZM76.136 14.956H72.4481V5.16397H76.136V14.956Z" fill="#191978"/>
<path d="M78.416 9.51601C78.416 5.81201 80.256 5.004 82.944 5.004H87.088C89.816 5.004 91.488 6.00395 91.488 8.25195V9.13193H87.92C87.92 8.13193 87.4 7.77197 85.792 7.77197H84.368C82.832 7.77197 82.104 8.19596 82.104 9.26796V10.572C82.104 11.836 82.912 12.22 84.064 12.22H85.944C86.984 12.22 87.92 11.988 87.92 11.084V10.8519H91.488V11.716C91.488 14.348 89.296 15.092 87.184 15.092H83.416C80.976 15.092 78.408 14.6279 78.408 10.4439V9.49999L78.416 9.51601Z" fill="#191978"/>
</svg>
