<svg width="96" height="16" viewBox="0 0 96 16" fill="none" xmlns="http://www.w3.org/2000/svg">
<path d="M1.08013 5.92378C1.08013 1.85178 3.36815 0.891846 7.20815 0.891846H12.2162C18.2802 0.891846 19.0721 2.19579 19.0321 6.13179H14.7681V5.7478C14.7681 4.7478 14.0401 4.45981 12.7681 4.45981H8.12017C5.87217 4.45981 5.4481 5.5158 5.4481 7.2438V8.7398C5.4481 10.7558 5.87213 11.5238 7.88813 11.5238H12.4401C14.3601 11.5238 14.9361 11.3319 14.9361 9.60386H19.2001V10.9079C19.2001 13.2519 18.3521 15.0918 14.0721 15.0918H7.20015C3.36015 15.0918 1.07212 14.1318 1.07212 10.0598V5.91587L1.08013 5.92378Z" fill="#961A88"/>
<path d="M21.3522 8.88355C21.3522 5.65955 23.5203 5.00357 25.4003 5.00357H30.9123C32.7923 5.00357 34.9602 5.65955 34.9602 8.88355V11.2275C34.9602 14.4515 32.7923 15.1076 30.9123 15.1076H25.4003C23.5203 15.1076 21.3522 14.4515 21.3522 11.2275V8.88355ZM25.0402 10.5156C25.0402 11.9156 25.8642 12.3395 27.5522 12.3395H28.4322C30.8162 12.3395 31.2722 12.0355 31.2722 10.7235V9.37955C31.2722 8.07555 30.8082 7.76353 28.4322 7.76353H27.5522C25.8642 7.76353 25.0402 8.18756 25.0402 9.58755V10.5076V10.5156Z" fill="#961A88"/>
<path d="M40.6883 11.9001C40.6883 12.4361 40.8803 12.8041 42.9763 12.8041H44.2803C46.0243 12.8041 46.4723 12.6681 46.4723 12.0761C46.4723 11.4841 46.1843 11.2681 44.8803 11.2681H41.4244C37.9844 11.2521 36.9683 10.5001 36.9683 7.81215C36.9683 5.37215 38.9283 5.01215 41.4643 5.01215H44.0403C48.8643 5.01215 49.7043 5.68412 49.7443 7.98812H46.0563C45.8643 7.41212 45.5204 7.31615 43.3124 7.31615C41.1044 7.31615 40.7763 7.37208 40.7763 8.04408C40.7763 8.46808 41.0643 8.62015 42.9843 8.62015H45.5363C49.9523 8.62015 50.2803 10.1001 50.2803 11.8441C50.2803 14.4361 49.2403 15.1081 45.0403 15.1081H41.5443C38.1443 15.1081 36.8963 14.3241 36.8963 11.9001H40.6963H40.6883Z" fill="#961A88"/>
<path d="M52.2643 5.15552H55.7763V7.07554H55.8164C56.0084 5.67554 57.2723 5.00357 59.0803 5.00357H60.4803C62.2243 5.00357 63.4164 5.75556 64.1124 7.29156C64.7284 5.52356 65.5124 5.00357 67.6084 5.00357H68.7443C72.1043 5.00357 73.3124 6.6355 73.3124 9.4355V14.9475H69.6244V9.68355C69.6244 8.33955 69.2803 7.87554 67.1283 7.87554C65.3603 7.87554 64.6323 8.25952 64.6323 9.54752V14.9395H60.9443V9.38756C60.9443 8.17956 60.5043 7.86754 58.2723 7.86754C56.6963 7.86754 55.9523 8.25154 55.9523 9.77154V14.9395H52.2643V5.14752V5.15552Z" fill="#961A88"/>
<path d="M79.5679 3.93198H75.8799V1.052H79.5679V3.93198ZM79.5679 14.956H75.8799V5.16401H79.5679V14.956Z" fill="#961A88"/>
<path d="M81.8559 9.51558C81.8559 5.81158 83.6959 5.00357 86.3839 5.00357H90.5279C93.2559 5.00357 94.9279 6.00352 94.9279 8.25152V9.1315H91.3599C91.3599 8.1315 90.8399 7.77154 89.2319 7.77154H87.808C86.272 7.77154 85.5439 8.19554 85.5439 9.26754V10.5715C85.5439 11.8355 86.352 12.2196 87.504 12.2196H89.3839C90.4239 12.2196 91.3599 11.9876 91.3599 11.0836V10.8515H94.9279V11.7156C94.9279 14.3476 92.736 15.0916 90.624 15.0916H86.8559C84.4159 15.0916 81.8479 14.6275 81.8479 10.4435V9.49957L81.8559 9.51558Z" fill="#961A88"/>
</svg>
