<svg width="94" height="16" viewBox="0 0 94 16" fill="none" xmlns="http://www.w3.org/2000/svg">
<path d="M7.52793 0.971973H13.08L20.7199 14.876H15.976L14.648 12.42H6.00791L4.75996 14.876H0L7.52793 0.971973ZM7.60791 9.42002H13.064L10.296 4.196L7.60791 9.42002Z" fill="#00AEB1"/>
<path d="M22.9439 7.73203H21.1039V5.08398H22.9439V2.77998H26.6319V5.08398H32.352V7.73203H26.6319V11.492C26.6319 12.22 27.168 12.372 28.056 12.372C29.248 12.372 29.576 12.1 29.576 11.204V10.5479H32.8V11.74C32.8 13.604 31.5679 15.02 28.6319 15.02H27.176C24.912 15.02 22.952 14.308 22.952 11.604V7.72402L22.9439 7.73203Z" fill="#00AEB1"/>
<path d="M34.6159 8.804C34.6159 5.58 36.784 4.92402 38.664 4.92402H44.176C46.056 4.92402 48.2239 5.58 48.2239 8.804V11.1479C48.2239 14.3719 46.056 15.028 44.176 15.028H38.664C36.784 15.028 34.6159 14.3719 34.6159 11.1479V8.804ZM38.3039 10.436C38.3039 11.836 39.1279 12.26 40.8159 12.26H41.696C44.08 12.26 44.5359 11.9559 44.5359 10.6439V9.3C44.5359 7.996 44.072 7.68398 41.696 7.68398H40.8159C39.1279 7.68398 38.3039 8.10801 38.3039 9.50801V10.428V10.436Z" fill="#00AEB1"/>
<path d="M50.3439 5.07598H53.856V6.996H53.896C54.088 5.596 55.352 4.92402 57.16 4.92402H58.56C60.304 4.92402 61.496 5.67601 62.192 7.21201C62.808 5.44401 63.592 4.92402 65.688 4.92402H66.8239C70.1839 4.92402 71.392 6.55596 71.392 9.35596V14.868H67.7039V9.604C67.7039 8.26 67.3599 7.796 65.2079 7.796C63.4399 7.796 62.7119 8.17997 62.7119 9.46797V14.868H59.0239V9.31602C59.0239 8.10802 58.584 7.796 56.352 7.796C54.776 7.796 54.0319 8.18 54.0319 9.7V14.868H50.3439V5.07598Z" fill="#00AEB1"/>
<path d="M77.6399 3.85195H73.952V0.971973H77.6399V3.85195ZM77.6399 14.876H73.952V5.08399H77.6399V14.876Z" fill="#00AEB1"/>
<path d="M79.9279 9.43603C79.9279 5.73203 81.768 4.92402 84.456 4.92402H88.6C91.328 4.92402 93 5.92397 93 8.17197V9.05195H89.4319C89.4319 8.05195 88.9119 7.69199 87.3039 7.69199H85.88C84.344 7.69199 83.6159 8.11599 83.6159 9.18799V10.492C83.6159 11.756 84.424 12.14 85.576 12.14H87.456C88.496 12.14 89.4319 11.908 89.4319 11.004V10.772H93V11.636C93 14.268 90.808 15.012 88.696 15.012H84.9279C82.4879 15.012 79.9199 14.548 79.9199 10.364V9.42002L79.9279 9.43603Z" fill="#00AEB1"/>
</svg>
