<svg width="24" height="24" viewBox="0 0 24 24" fill="none" xmlns="http://www.w3.org/2000/svg">
<path d="M4 10.5075C4 11.4058 4.16936 12.2502 4.50807 13.0405C4.84679 13.8252 5.31755 14.516 5.92034 15.113C6.52314 15.71 7.22067 16.1763 8.01292 16.5117C8.80517 16.8472 9.65483 17.0149 10.5619 17.0149C11.2565 17.0149 11.9168 16.9126 12.5425 16.7079C13.1683 16.5032 13.7452 16.2189 14.2734 15.855L18.1485 19.7015C18.2519 19.8038 18.3724 19.8778 18.5102 19.9232C18.648 19.9744 18.7887 20 18.9322 20C19.1389 20 19.3226 19.9517 19.4833 19.855C19.6441 19.764 19.7704 19.6361 19.8622 19.4712C19.9541 19.312 20 19.1272 20 18.9168C20 18.7804 19.9742 18.6468 19.9225 18.516C19.8708 18.3852 19.7962 18.2658 19.6986 18.1578L15.8493 14.3369C16.2569 13.8024 16.5727 13.2111 16.7966 12.5629C17.0205 11.909 17.1324 11.2239 17.1324 10.5075C17.1324 9.6091 16.963 8.76759 16.6243 7.98294C16.2856 7.19261 15.8149 6.50178 15.2121 5.91045C14.6093 5.31343 13.9117 4.84719 13.1195 4.51173C12.3272 4.17058 11.4747 4 10.5619 4C9.65483 4 8.80517 4.17058 8.01292 4.51173C7.22067 4.84719 6.52314 5.31343 5.92034 5.91045C5.31755 6.50178 4.84679 7.19261 4.50807 7.98294C4.16936 8.76759 4 9.6091 4 10.5075ZM5.56728 10.5075C5.56728 9.82516 5.69645 9.1855 5.95479 8.58849C6.21313 7.98579 6.57194 7.45984 7.03122 7.01066C7.49049 6.55579 8.02153 6.20043 8.62433 5.94456C9.22713 5.6887 9.87298 5.56077 10.5619 5.56077C11.2508 5.56077 11.8967 5.6887 12.4995 5.94456C13.108 6.20043 13.639 6.55579 14.0926 7.01066C14.5518 7.45984 14.9107 7.98579 15.169 8.58849C15.4273 9.1855 15.5565 9.82516 15.5565 10.5075C15.5565 11.1898 15.4273 11.8323 15.169 12.435C14.9107 13.032 14.5518 13.5579 14.0926 14.0128C13.639 14.462 13.108 14.8145 12.4995 15.0704C11.8967 15.3262 11.2508 15.4542 10.5619 15.4542C9.87298 15.4542 9.22713 15.3262 8.62433 15.0704C8.02153 14.8145 7.49049 14.462 7.03122 14.0128C6.57194 13.5579 6.21313 13.032 5.95479 12.435C5.69645 11.8323 5.56728 11.1898 5.56728 10.5075ZM7.8493 10.5075C7.8493 10.678 7.90958 10.823 8.03014 10.9424C8.1507 11.0618 8.29709 11.1215 8.46932 11.1215H9.94187V12.5885C9.94187 12.7591 10.0022 12.9041 10.1227 13.0235C10.2433 13.1372 10.3925 13.194 10.5705 13.194C10.7427 13.194 10.8863 13.1372 11.0011 13.0235C11.1216 12.9041 11.1819 12.7591 11.1819 12.5885V11.1215H12.6631C12.8353 11.1215 12.9817 11.0618 13.1023 10.9424C13.2228 10.823 13.2831 10.678 13.2831 10.5075C13.2831 10.3369 13.2228 10.1919 13.1023 10.0725C12.9817 9.95309 12.8353 9.89339 12.6631 9.89339H11.1819V8.43497C11.1819 8.26439 11.1216 8.1194 11.0011 8C10.8863 7.87491 10.7427 7.81237 10.5705 7.81237C10.3925 7.81237 10.2433 7.87491 10.1227 8C10.0022 8.1194 9.94187 8.26439 9.94187 8.43497V9.89339H8.46932C8.29709 9.89339 8.1507 9.95309 8.03014 10.0725C7.90958 10.1919 7.8493 10.3369 7.8493 10.5075Z" fill="#961A88"/>
</svg>
